<svg width="800" height="450" viewBox="0 0 800 450" fill="none" xmlns="http://www.w3.org/2000/svg">
  <rect width="800" height="450" fill="#0f172a"/>
  
  <!-- Header -->
  <rect x="0" y="0" width="800" height="60" fill="#1e293b"/>
  <circle cx="40" cy="30" r="15" fill="#f59e0b"/>
  <rect x="70" y="20" width="200" height="20" rx="4" fill="#64748b"/>

  <!-- Cards -->
  <rect x="50" y="100" width="200" height="120" rx="10" fill="url(#grad1)"/>
  <rect x="70" y="130" width="40" height="30" rx="4" fill="#fbbf24"/>
  <rect x="70" y="180" width="120" height="10" rx="2" fill="#ffffff" fill-opacity="0.5"/>
  <circle cx="220" cy="190" r="15" fill="#ffffff" fill-opacity="0.8"/>

  <rect x="280" y="100" width="200" height="120" rx="10" fill="#334155"/>
  <rect x="300" y="120" width="100" height="10" rx="2" fill="#94a3b8"/>
  <rect x="300" y="150" width="160" height="40" rx="2" fill="#3b82f6"/>

  <rect x="510" y="100" width="240" height="120" rx="10" fill="#334155"/>
  <path d="M530 190 L560 160 L590 180 L620 140 L650 170 L720 110" stroke="#22c55e" stroke-width="4" stroke-linecap="round"/>

  <!-- Bottom Charts -->
  <rect x="50" y="260" width="430" height="160" rx="10" fill="#1e293b"/>
  <rect x="80" y="380" width="30" height="60" fill="#3b82f6"/>
  <rect x="130" y="340" width="30" height="100" fill="#3b82f6"/>
  <rect x="180" y="360" width="30" height="80" fill="#3b82f6"/>
  <rect x="230" y="300" width="30" height="140" fill="#3b82f6"/>
  <rect x="280" y="320" width="30" height="120" fill="#3b82f6"/>
  <rect x="330" y="280" width="30" height="160" fill="#3b82f6"/>
  <rect x="380" y="350" width="30" height="90" fill="#3b82f6"/>

  <rect x="510" y="260" width="240" height="160" rx="10" fill="#1e293b"/>
  <circle cx="630" cy="340" r="60" stroke="#f59e0b" stroke-width="20"/>
  <path d="M630 280 A60 60 0 0 1 690 340" stroke="#3b82f6" stroke-width="20" fill="none"/>

  <defs>
    <linearGradient id="grad1" x1="50" y1="100" x2="250" y2="220" gradientUnits="userSpaceOnUse">
      <stop stop-color="#3b82f6"/>
      <stop offset="1" stop-color="#1e40af"/>
    </linearGradient>
  </defs>
</svg>