<svg width="800" height="450" viewBox="0 0 800 450" fill="none" xmlns="http://www.w3.org/2000/svg">
  <rect width="800" height="450" fill="#111827"/>

  <!-- Gauges -->
  <circle cx="150" cy="120" r="60" stroke="#374151" stroke-width="15"/>
  <path d="M90 120 A60 60 0 1 1 210 120" stroke="#10b981" stroke-width="15" fill="none" stroke-linecap="round"/>
  <text x="150" y="130" font-family="sans-serif" font-size="24" fill="white" text-anchor="middle">85%</text>

  <circle cx="400" cy="120" r="60" stroke="#374151" stroke-width="15"/>
  <path d="M340 120 A60 60 0 1 1 430 68" stroke="#3b82f6" stroke-width="15" fill="none" stroke-linecap="round"/>
  <text x="400" y="130" font-family="sans-serif" font-size="24" fill="white" text-anchor="middle">12K</text>

  <circle cx="650" cy="120" r="60" stroke="#374151" stroke-width="15"/>
  <path d="M590 120 A60 60 0 0 1 650 60" stroke="#f59e0b" stroke-width="15" fill="none" stroke-linecap="round"/>
  <text x="650" y="130" font-family="sans-serif" font-size="24" fill="white" text-anchor="middle">$4M</text>

  <!-- Map / Regional Area -->
  <rect x="50" y="220" width="400" height="200" rx="8" fill="#1f2937"/>
  <path d="M100 350 L150 280 L200 300 L250 250 L350 320" stroke="#60a5fa" stroke-width="4" fill="none"/>
  <circle cx="150" cy="280" r="4" fill="white"/>
  <circle cx="250" cy="250" r="4" fill="white"/>
  
  <!-- Product Mix -->
  <rect x="480" y="220" width="270" height="200" rx="8" fill="#1f2937"/>
  <rect x="500" y="250" width="200" height="20" rx="4" fill="#10b981"/>
  <text x="500" y="240" font-family="sans-serif" font-size="12" fill="#9ca3af">Bikes</text>
  <rect x="500" y="300" width="140" height="20" rx="4" fill="#3b82f6"/>
  <text x="500" y="290" font-family="sans-serif" font-size="12" fill="#9ca3af">Accessories</text>
  <rect x="500" y="350" width="80" height="20" rx="4" fill="#f59e0b"/>
  <text x="500" y="340" font-family="sans-serif" font-size="12" fill="#9ca3af">Clothing</text>

</svg>